<svg xmlns="http://www.w3.org/2000/svg" viewBox="0 0 32 32" fill="none">
  <defs>
    <linearGradient id="fl" x1="4" y1="4" x2="20" y2="28" gradientUnits="userSpaceOnUse">
      <stop stop-color="#1E60D5"/>
      <stop offset="1" stop-color="#101D3B"/>
    </linearGradient>
    <linearGradient id="fr" x1="18" y1="22" x2="18" y2="8" gradientUnits="userSpaceOnUse">
      <stop stop-color="#1E60D5"/>
      <stop offset="1" stop-color="#00B7E5"/>
    </linearGradient>
  </defs>
  <rect width="32" height="32" rx="8" fill="#FAFBFC"/>
  <path d="M3 16c0-6 5-10 10-10 2.2 0 4.2.7 5.8 2" stroke="url(#fl)" stroke-width="2.2" stroke-linecap="round" fill="none"/>
  <path d="M19 8c3.5 1.2 6 4.2 7 8-1 3.8-3.5 6.8-7 8" stroke="#00B7E5" stroke-width="1.4" stroke-linecap="round" fill="none" opacity=".9"/>
  <circle cx="24" cy="9" r="1" fill="#00B7E5"/>
  <circle cx="27" cy="12" r=".8" fill="#5AC8FA"/>
  <circle cx="25" cy="22" r=".8" fill="#00B7E5"/>
  <rect x="7" y="11" width="3" height="2.5" rx=".4" fill="#B8D4F0"/>
  <rect x="11" y="11" width="3" height="2.5" rx=".4" fill="#7EB3E8"/>
  <rect x="7" y="14.5" width="3" height="2.5" rx=".4" fill="#00A971"/>
  <rect x="11" y="14.5" width="3" height="2.5" rx=".4" fill="#B8D4F0"/>
  <rect x="7" y="18" width="3" height="2.5" rx=".4" fill="#7EB3E8"/>
  <rect x="11" y="18" width="3" height="2.5" rx=".4" fill="#D4E6F7"/>
  <rect x="19" y="18" width="2.2" height="4" rx=".4" fill="url(#fr)"/>
  <rect x="22" y="15" width="2.2" height="7" rx=".4" fill="url(#fr)"/>
  <rect x="25" y="12" width="2.2" height="10" rx=".4" fill="url(#fr)"/>
</svg>
