<svg xmlns="http://www.w3.org/2000/svg" viewBox="0 0 72 48" fill="none" aria-hidden="true">
  <defs>
    <linearGradient id="eyeL" x1="6" y1="6" x2="34" y2="42" gradientUnits="userSpaceOnUse">
      <stop stop-color="#1E60D5"/>
      <stop offset="1" stop-color="#101D3B"/>
    </linearGradient>
    <linearGradient id="barG" x1="0" y1="1" x2="0" y2="0" gradientUnits="objectBoundingBox">
      <stop stop-color="#1E60D5"/>
      <stop offset="1" stop-color="#00B7E5"/>
    </linearGradient>
  </defs>
  <!-- 左眼弧 -->
  <path d="M4 24C4 11 14 4 26 4c4 0 7.5 1.2 10 3.5" stroke="url(#eyeL)" stroke-width="4.5" stroke-linecap="round" fill="none"/>
  <!-- 右眼弧 + 节点 -->
  <path d="M36 7.5c6 2 10.5 7 11.5 16.5-1 9.5-5.5 14.5-11.5 16.5" stroke="#00B7E5" stroke-width="2.2" stroke-linecap="round" fill="none"/>
  <circle cx="52" cy="9" r="1.6" fill="#00B7E5"/>
  <circle cx="58" cy="14" r="1.3" fill="#5AC8FA"/>
  <circle cx="54" cy="34" r="1.3" fill="#00B7E5"/>
  <!-- 数据表格 -->
  <rect x="12" y="14" width="7" height="5.5" rx="1" fill="#B8D4F0"/>
  <rect x="21" y="14" width="7" height="5.5" rx="1" fill="#7EB3E8"/>
  <rect x="12" y="21.5" width="7" height="5.5" rx="1" fill="#00A971"/>
  <rect x="21" y="21.5" width="7" height="5.5" rx="1" fill="#B8D4F0"/>
  <rect x="12" y="29" width="7" height="5.5" rx="1" fill="#7EB3E8"/>
  <rect x="21" y="29" width="7" height="5.5" rx="1" fill="#D4E6F7"/>
  <!-- 柱状图 -->
  <rect x="38" y="28" width="5" height="10" rx="1" fill="url(#barG)"/>
  <rect x="46" y="23" width="5" height="15" rx="1" fill="url(#barG)"/>
  <rect x="54" y="17" width="5" height="21" rx="1" fill="url(#barG)"/>
  <rect x="62" y="11" width="5" height="27" rx="1" fill="url(#barG)"/>
</svg>
