<svg xmlns="http://www.w3.org/2000/svg" viewBox="0 0 800 520" fill="none">
  <rect width="800" height="520" rx="16" fill="#F5F5F7"/>
  <!-- sidebar -->
  <rect x="0" y="0" width="200" height="520" rx="16" fill="#FFFFFF"/>
  <rect x="0" y="0" width="200" height="520" rx="16" fill="url(#sidebar)"/>
  <text x="24" y="44" font-family="-apple-system, BlinkMacSystemFont, 'SF Pro Display', sans-serif" font-size="18" font-weight="700" fill="#1D1D1F">数据表</text>
  <rect x="20" y="66" width="160" height="36" rx="8" fill="#FFF5F2"/>
  <text x="34" y="90" font-family="-apple-system, BlinkMacSystemFont, 'SF Pro Display', sans-serif" font-size="13" font-weight="600" fill="#D97757">销售明细</text>
  <rect x="34" y="116" width="110" height="14" rx="4" fill="#E5E5EA"/>
  <rect x="34" y="138" width="90" height="14" rx="4" fill="#E5E5EA"/>
  <rect x="34" y="160" width="120" height="14" rx="4" fill="#E5E5EA"/>
  <rect x="20" y="440" width="160" height="40" rx="10" fill="#D97757" fill-opacity="0.1"/>
  <text x="56" y="466" font-family="-apple-system, BlinkMacSystemFont, 'SF Pro Display', sans-serif" font-size="13" font-weight="600" fill="#D97757">关联总结</text>

  <!-- understanding card -->
  <rect x="224" y="20" width="556" height="132" rx="14" fill="#FFFFFF"/>
  <rect x="224" y="20" width="556" height="132" rx="14" stroke="#E5E5EA" stroke-width="1"/>
  <text x="248" y="52" font-family="-apple-system, BlinkMacSystemFont, 'SF Pro Display', sans-serif" font-size="15" font-weight="700" fill="#1D1D1F">AI 理解 · 销售明细</text>
  <rect x="248" y="72" width="508" height="10" rx="3" fill="#F2EEEC"/>
  <rect x="248" y="90" width="460" height="10" rx="3" fill="#F2EEEC"/>
  <rect x="248" y="108" width="420" height="10" rx="3" fill="#F2EEEC"/>
  <rect x="248" y="126" width="484" height="10" rx="3" fill="#F2EEEC"/>

  <!-- table -->
  <rect x="224" y="168" width="556" height="332" rx="14" fill="#FFFFFF"/>
  <rect x="224" y="168" width="556" height="332" rx="14" stroke="#E5E5EA" stroke-width="1"/>
  <rect x="224" y="168" width="556" height="48" rx="14" fill="#F5F5F7"/>
  <rect x="224" y="192" width="556" height="1" fill="#E5E5EA"/>
  <text x="248" y="198" font-family="-apple-system, BlinkMacSystemFont, 'SF Pro Display', sans-serif" font-size="13" font-weight="600" fill="#6E6E73">订单号</text>
  <text x="360" y="198" font-family="-apple-system, BlinkMacSystemFont, 'SF Pro Display', sans-serif" font-size="13" font-weight="600" fill="#6E6E73">日期</text>
  <text x="460" y="198" font-family="-apple-system, BlinkMacSystemFont, 'SF Pro Display', sans-serif" font-size="13" font-weight="600" fill="#6E6E73">销售员</text>
  <text x="570" y="198" font-family="-apple-system, BlinkMacSystemFont, 'SF Pro Display', sans-serif" font-size="13" font-weight="600" fill="#6E6E73">产品</text>
  <text x="690" y="198" font-family="-apple-system, BlinkMacSystemFont, 'SF Pro Display', sans-serif" font-size="13" font-weight="600" fill="#6E6E73">销售额</text>

  <!-- rows -->
  <g font-family="-apple-system, BlinkMacSystemFont, 'SF Pro Display', sans-serif" font-size="13" fill="#1D1D1F">
    <text x="248" y="236">ORD-20240903-0001</text>
    <text x="360" y="236">2024-09-03</text>
    <text x="460" y="236">李娜</text>
    <text x="570" y="236">交换机 Cisco 9300</text>
    <text x="690" y="236" fill="#D97757">¥841,643</text>

    <text x="248" y="276">ORD-20241023-0002</text>
    <text x="360" y="276">2024-10-23</text>
    <text x="460" y="276">张伟</text>
    <text x="570" y="276">显示器 Dell U2723</text>
    <text x="690" y="276" fill="#D97757">¥79,686</text>

    <text x="248" y="316">ORD-20240505-0003</text>
    <text x="360" y="316">2024-05-05</text>
    <text x="460" y="316">黄静</text>
    <text x="570" y="316">CRM 客户管理</text>
    <text x="690" y="316" fill="#D97757">¥1,512,735</text>

    <text x="248" y="356">ORD-20240526-0004</text>
    <text x="360" y="356">2024-05-26</text>
    <text x="460" y="356">杨丽</text>
    <text x="570" y="356">网线 Cat6</text>
    <text x="690" y="356" fill="#D97757">¥1,044</text>

    <text x="248" y="396">ORD-20240619-0005</text>
    <text x="360" y="396">2024-06-19</text>
    <text x="460" y="396">周涛</text>
    <text x="570" y="396">BI 数据分析</text>
    <text x="690" y="396" fill="#D97757">¥1,879,885</text>
  </g>

  <defs>
    <linearGradient id="sidebar" x1="0" y1="0" x2="1" y2="1">
      <stop offset="0%" stop-color="#FFFFFF"/>
      <stop offset="100%" stop-color="#FAFAFA"/>
    </linearGradient>
  </defs>
</svg>
